<svg width="296" height="296" viewBox="0 0 296 296" fill="none" xmlns="http://www.w3.org/2000/svg">
<mask id="path-1-outside-1_648_5539" maskUnits="userSpaceOnUse" x="-1" y="0" width="298" height="296" fill="black">
<rect fill="white" x="-1" width="298" height="296"/>
<path d="M195.542 44.1218L26.2474 110.359L25.3501 110.767C18.4706 113.962 14.8813 121.169 16.6012 128.264C18.321 135.397 24.9014 140.338 32.6034 140.338H197.374L25.8735 210.401L25.0883 210.735C18.2836 213.967 14.7317 221.137 16.4142 228.158C18.1341 235.216 24.6397 240.194 32.1922 240.269L240.446 243.055L230.463 259.995L256.523 274L277.834 237.891C280.601 233.136 280.526 227.267 277.647 222.549C274.731 217.794 269.347 214.859 263.664 214.784L96.5377 212.556L270.132 141.638L270.917 141.304C277.76 138.072 281.311 130.865 279.554 123.806C277.797 116.711 271.254 111.77 263.552 111.77H101.51L269.833 45.9421L270.73 45.5706C277.61 42.3758 281.199 35.1689 279.479 28.0734C277.76 20.9408 271.179 16 263.589 16"/>
</mask>
<path d="M195.542 44.1218L26.2474 110.359L25.3501 110.767C18.4706 113.962 14.8813 121.169 16.6012 128.264C18.321 135.397 24.9014 140.338 32.6034 140.338H197.374L25.8735 210.401L25.0883 210.735C18.2836 213.967 14.7317 221.137 16.4142 228.158C18.1341 235.216 24.6397 240.194 32.1922 240.269L240.446 243.055L230.463 259.995L256.523 274L277.834 237.891C280.601 233.136 280.526 227.267 277.647 222.549C274.731 217.794 269.347 214.859 263.664 214.784L96.5377 212.556L270.132 141.638L270.917 141.304C277.76 138.072 281.311 130.865 279.554 123.806C277.797 116.711 271.254 111.77 263.552 111.77H101.51L269.833 45.9421L270.73 45.5706C277.61 42.3758 281.199 35.1689 279.479 28.0734C277.76 20.9408 271.179 16 263.589 16" fill="url(#paint0_linear_648_5539)"/>
<path d="M26.2474 110.359L20.4177 95.4584L20.0123 95.617L19.6162 95.7974L26.2474 110.359ZM25.3501 110.767L18.7189 96.206L18.6648 96.2306L18.6109 96.2557L25.3501 110.767ZM16.6012 128.264L32.1554 124.514L32.1531 124.505L32.1509 124.495L16.6012 128.264ZM197.374 140.338L203.425 155.149L197.374 124.338V140.338ZM25.8735 210.401L19.8225 195.589L19.7134 195.634L19.6049 195.68L25.8735 210.401ZM25.0883 210.735L18.8198 196.014L18.5191 196.142L18.2239 196.283L25.0883 210.735ZM16.4142 228.158L0.85472 231.887L0.86183 231.916L0.869051 231.946L16.4142 228.158ZM32.1922 240.269L32.4062 224.27L32.3779 224.27L32.3495 224.269L32.1922 240.269ZM240.446 243.055L254.23 251.178L268.228 227.425L240.66 227.056L240.446 243.055ZM230.463 259.995L216.679 251.872L208.229 266.21L222.889 274.088L230.463 259.995ZM256.523 274L248.949 288.094L262.489 295.371L270.302 282.132L256.523 274ZM277.834 237.891L291.613 246.024L291.639 245.981L291.664 245.938L277.834 237.891ZM277.647 222.549L291.305 214.214L291.296 214.199L291.287 214.184L277.647 222.549ZM263.664 214.784L263.451 230.783L263.455 230.783L263.664 214.784ZM96.5377 212.556L90.4868 197.744L96.3243 228.554L96.5377 212.556ZM270.132 141.638L276.183 156.45L276.292 156.405L276.401 156.359L270.132 141.638ZM270.917 141.304L277.186 156.025L277.471 155.903L277.751 155.771L270.917 141.304ZM279.554 123.806L264.023 127.653L264.026 127.662L264.028 127.672L279.554 123.806ZM101.51 111.77L95.6828 96.8692L101.51 127.77V111.77ZM269.833 45.9421L275.661 60.8431L275.808 60.7857L275.953 60.7253L269.833 45.9421ZM270.73 45.5706L276.851 60.3538L277.163 60.2245L277.47 60.0821L270.73 45.5706ZM279.479 28.0734L263.925 31.824L263.927 31.8333L263.93 31.8425L279.479 28.0734ZM189.713 29.2217L20.4177 95.4584L32.0771 125.259L201.372 59.022L189.713 29.2217ZM19.6162 95.7974L18.7189 96.206L31.9812 125.328L32.8786 124.92L19.6162 95.7974ZM18.6109 96.2557C5.16716 102.499 -2.55645 117.149 1.05144 132.033L32.1509 124.495C32.1702 124.575 32.1837 124.702 32.1663 124.85C32.1495 124.993 32.1093 125.113 32.0649 125.202C32.0208 125.29 31.9789 125.336 31.9653 125.349C31.9491 125.365 31.9779 125.33 32.0892 125.279L18.6109 96.2557ZM1.04696 132.015C4.63392 146.891 18.0987 156.338 32.6034 156.338V124.338C32.1902 124.338 32.0065 124.212 31.987 124.197C31.9762 124.189 32.0062 124.209 32.05 124.274C32.0974 124.346 32.1359 124.433 32.1554 124.514L1.04696 132.015ZM32.6034 156.338H197.374V124.338H32.6034V156.338ZM191.323 125.526L19.8225 195.589L31.9245 225.213L203.425 155.149L191.323 125.526ZM19.6049 195.68L18.8198 196.014L31.3569 225.456L32.1421 225.122L19.6049 195.68ZM18.2239 196.283C4.97092 202.577 -2.68669 217.108 0.85472 231.887L31.9737 224.43C31.9972 224.527 32.0092 224.663 31.9916 224.812C31.9747 224.955 31.9354 225.069 31.8958 225.148C31.8087 225.324 31.7496 225.284 31.9528 225.188L18.2239 196.283ZM0.869051 231.946C4.42665 246.546 17.6172 256.126 32.0348 256.268L32.3495 224.269C32.0597 224.267 31.9028 224.175 31.8525 224.136C31.8286 224.118 31.8422 224.122 31.872 224.167C31.9053 224.217 31.9398 224.29 31.9594 224.37L0.869051 231.946ZM31.9781 256.267L240.232 259.053L240.66 227.056L32.4062 224.27L31.9781 256.267ZM226.661 234.932L216.679 251.872L244.248 268.118L254.23 251.178L226.661 234.932ZM222.889 274.088L248.949 288.094L264.097 259.906L238.037 245.901L222.889 274.088ZM270.302 282.132L291.613 246.024L264.055 229.759L242.744 265.868L270.302 282.132ZM291.664 245.938C297.408 236.065 297.22 223.907 291.305 214.214L263.989 230.883C263.833 230.626 263.794 230.207 264.005 229.845L291.664 245.938ZM291.287 214.184C285.347 204.499 274.747 198.928 263.873 198.786L263.455 230.783C263.624 230.785 263.809 230.835 263.956 230.916C264.1 230.995 264.081 231.032 264.008 230.914L291.287 214.184ZM263.877 198.786L96.7511 196.557L96.3243 228.554L263.451 230.783L263.877 198.786ZM102.589 227.367L276.183 156.45L264.081 126.826L90.4868 197.744L102.589 227.367ZM276.401 156.359L277.186 156.025L264.649 126.583L263.864 126.917L276.401 156.359ZM277.751 155.771C291.097 149.467 298.783 134.814 295.08 119.941L264.028 127.672C264.005 127.578 263.99 127.439 264.008 127.28C264.025 127.128 264.067 127.002 264.112 126.911C264.211 126.711 264.286 126.741 264.084 126.837L277.751 155.771ZM295.085 119.96C291.44 105.243 278.1 95.7702 263.552 95.7702V127.77C263.959 127.77 264.136 127.893 264.158 127.909C264.171 127.919 264.148 127.905 264.112 127.851C264.072 127.792 264.04 127.719 264.023 127.653L295.085 119.96ZM263.552 95.7702H101.51V127.77H263.552V95.7702ZM107.338 126.671L275.661 60.8431L264.006 31.0411L95.6828 96.8692L107.338 126.671ZM275.953 60.7253L276.851 60.3538L264.61 30.7874L263.713 31.1589L275.953 60.7253ZM277.47 60.0821C290.913 53.8389 298.637 39.189 295.029 24.3043L263.93 31.8425C263.91 31.763 263.897 31.6363 263.914 31.4876C263.931 31.3445 263.971 31.2246 264.016 31.1358C264.06 31.0474 264.102 31.0018 264.115 30.9887C264.131 30.973 264.103 31.0074 263.991 31.0591L277.47 60.0821ZM295.034 24.3229C291.461 9.50864 278.049 0 263.589 0V32C263.898 32 264.049 32.0966 264.077 32.1179C264.09 32.1275 264.064 32.1113 264.025 32.0523C263.982 31.9876 263.945 31.9043 263.925 31.824L295.034 24.3229Z" fill="#1065AC" mask="url(#path-1-outside-1_648_5539)"/>
<defs>
<linearGradient id="paint0_linear_648_5539" x1="147.984" y1="274" x2="147.984" y2="14.6255" gradientUnits="userSpaceOnUse">
<stop offset="0.15" stop-color="#93DFF3"/>
<stop offset="0.32" stop-color="#C2D5A6"/>
<stop offset="0.42" stop-color="#F5DE87"/>
<stop offset="0.6" stop-color="#F5DE87"/>
<stop offset="0.815" stop-color="#916F3C"/>
<stop offset="0.9999" stop-color="#382900"/>
<stop offset="1" stop-color="#382900"/>
</linearGradient>
</defs>
</svg>
