<svg width="23" height="22" viewBox="0 0 23 22" fill="none" xmlns="http://www.w3.org/2000/svg">
<path d="M19.0753 19.1717V11.8687C19.0753 11.3845 18.8829 10.9201 18.5405 10.5777C18.1982 10.2353 17.7338 10.043 17.2496 10.043H6.2951C5.81089 10.043 5.3465 10.2353 5.00411 10.5777C4.66171 10.9201 4.46936 11.3845 4.46936 11.8687V19.1717" stroke="#3362AD" stroke-width="1.67" stroke-linecap="round" stroke-linejoin="round"/>
<path d="M4.46936 14.6043C4.46936 14.6043 4.9258 13.6914 6.2951 13.6914C7.66441 13.6914 8.57728 15.5171 9.94659 15.5171C11.3159 15.5171 12.2288 13.6914 13.5981 13.6914C14.9674 13.6914 15.8802 15.5171 17.2496 15.5171C18.6189 15.5171 19.0753 14.6043 19.0753 14.6043" stroke="#3362AD" stroke-width="1.67" stroke-linecap="round" stroke-linejoin="round"/>
<path d="M2.64355 19.1719H20.901" stroke="#124A9D" stroke-width="1.67" stroke-linecap="round" stroke-linejoin="round"/>
<path d="M7.20801 7.30469V10.0433" stroke="#124A9D" stroke-width="1.67" stroke-linecap="round" stroke-linejoin="round"/>
<path d="M11.7723 7.30469V10.0433" stroke="#124A9D" stroke-width="1.67" stroke-linecap="round" stroke-linejoin="round"/>
<path d="M16.3367 7.30469V10.0433" stroke="#124A9D" stroke-width="1.67" stroke-linecap="round" stroke-linejoin="round"/>
<path d="M7.20801 3.65234H7.21714" stroke="#124A9D" stroke-width="1.67" stroke-linecap="round" stroke-linejoin="round"/>
<path d="M11.7723 3.65234H11.7815" stroke="#124A9D" stroke-width="1.67" stroke-linecap="round" stroke-linejoin="round"/>
<path d="M16.3367 3.65234H16.3458" stroke="#124A9D" stroke-width="1.67" stroke-linecap="round" stroke-linejoin="round"/>
</svg>
