<svg width="20" height="20" viewBox="0 0 20 20" fill="none" xmlns="http://www.w3.org/2000/svg">
<path d="M15 1.66797H5.00004C4.55801 1.66797 4.13409 1.84356 3.82153 2.15612C3.50897 2.46868 3.33337 2.89261 3.33337 3.33464V16.668C3.33337 17.11 3.50897 17.5339 3.82153 17.8465C4.13409 18.159 4.55801 18.3346 5.00004 18.3346H15C15.4421 18.3346 15.866 18.159 16.1786 17.8465C16.4911 17.5339 16.6667 17.11 16.6667 16.668V3.33464C16.6667 2.89261 16.4911 2.46868 16.1786 2.15612C15.866 1.84356 15.4421 1.66797 15 1.66797Z" stroke="#161616" stroke-width="1.67" stroke-linecap="round" stroke-linejoin="round"/>
<path d="M7.5 13.3331L7.79 13.1331C9.01083 12.289 10.99 12.289 12.21 13.1331L12.5 13.3331" stroke="#161616" stroke-width="1.67" stroke-linecap="round" stroke-linejoin="round"/>
<path d="M6.66663 5.83203H6.67496" stroke="#161616" stroke-width="1.67" stroke-linecap="round" stroke-linejoin="round"/>
<path d="M13.3334 5.83203H13.3417" stroke="#161616" stroke-width="1.67" stroke-linecap="round" stroke-linejoin="round"/>
<path d="M10 5.83203H10.0083" stroke="#161616" stroke-width="1.67" stroke-linecap="round" stroke-linejoin="round"/>
<path d="M10 9.16797H10.0083" stroke="#161616" stroke-width="1.67" stroke-linecap="round" stroke-linejoin="round"/>
<path d="M13.3334 9.16797H13.3417" stroke="#161616" stroke-width="1.67" stroke-linecap="round" stroke-linejoin="round"/>
<path d="M6.66663 9.16797H6.67496" stroke="#161616" stroke-width="1.67" stroke-linecap="round" stroke-linejoin="round"/>
<path d="M8.33337 18.3346V12.918M11.6667 12.918V18.3346" stroke="#161616" stroke-width="1.67" stroke-linecap="round" stroke-linejoin="round"/>
</svg>
