<svg width="33" height="33" viewBox="0 0 33 33" fill="none" xmlns="http://www.w3.org/2000/svg">
<path d="M32.5 1H1V32.4921H32.5V1Z" fill="#382900" stroke="#999999" stroke-miterlimit="10"/>
<path d="M12.396 9.74609H8.62109V13.5201H12.396V9.74609Z" stroke="white" stroke-miterlimit="10"/>
<path d="M12.3955 15.1367H8.62061V18.9107H12.3955V15.1367Z" stroke="white" stroke-miterlimit="10"/>
<path d="M12.3955 20.5898H8.62061V24.3638H12.3955V20.5898Z" stroke="white" stroke-miterlimit="10"/>
<path d="M18.7417 9.62891H14.9668V13.4029H18.7417V9.62891Z" stroke="white" stroke-miterlimit="10"/>
<path d="M18.7417 15.0859H14.9668V18.8599H18.7417V15.0859Z" stroke="white" stroke-miterlimit="10"/>
<path d="M18.7417 20.5352H14.9668V24.3091H18.7417V20.5352Z" stroke="white" stroke-miterlimit="10"/>
<path d="M24.8789 9.62891H21.104V13.4029H24.8789V9.62891Z" stroke="white" stroke-miterlimit="10"/>
<path d="M24.8789 15.0859H21.104V18.8599H24.8789V15.0859Z" stroke="white" stroke-miterlimit="10"/>
<path d="M24.8789 20.5352H21.104V24.3091H24.8789V20.5352Z" stroke="white" stroke-miterlimit="10"/>
</svg>
