<svg width="63" height="32" viewBox="0 0 63 32" fill="none" xmlns="http://www.w3.org/2000/svg">
<g clip-path="url(#clip0_939_22179)">
<path d="M31.7539 0.253906H0.253906V31.746H31.7539V0.253906Z" fill="white" stroke="#999999" stroke-miterlimit="10"/>
<path d="M62.7461 0.253906H31.2461V31.746H62.7461V0.253906Z" fill="#382900" stroke="#999999" stroke-miterlimit="10"/>
<path d="M12 8H8V12H12V8Z" fill="white" stroke="#382900" stroke-miterlimit="10"/>
<path d="M12 14H8V18H12V14Z" fill="white" stroke="#382900" stroke-miterlimit="10"/>
<path d="M12 20H8V24H12V20Z" fill="white" stroke="#382900" stroke-miterlimit="10"/>
<path d="M23 8H14V12H23V8Z" fill="white" stroke="#382900" stroke-miterlimit="10"/>
<path d="M23 14H14V18H23V14Z" fill="white" stroke="#382900" stroke-miterlimit="10"/>
<path d="M23 20H14V24H23V20Z" fill="white" stroke="#382900" stroke-miterlimit="10"/>
<path d="M42.6421 9H38.8672V12.774H42.6421V9Z" stroke="white" stroke-miterlimit="10"/>
<path d="M42.6416 14.3896H38.8667V18.1636H42.6416V14.3896Z" stroke="white" stroke-miterlimit="10"/>
<path d="M42.6416 19.8447H38.8667V23.6187H42.6416V19.8447Z" stroke="white" stroke-miterlimit="10"/>
<path d="M48.9878 8.88379H45.2129V12.6578H48.9878V8.88379Z" stroke="white" stroke-miterlimit="10"/>
<path d="M48.9878 14.3389H45.2129V18.1128H48.9878V14.3389Z" stroke="white" stroke-miterlimit="10"/>
<path d="M48.9878 19.7891H45.2129V23.563H48.9878V19.7891Z" stroke="white" stroke-miterlimit="10"/>
<path d="M55.125 8.88379H51.3501V12.6578H55.125V8.88379Z" stroke="white" stroke-miterlimit="10"/>
<path d="M55.125 14.3389H51.3501V18.1128H55.125V14.3389Z" stroke="white" stroke-miterlimit="10"/>
<path d="M55.125 19.7891H51.3501V23.563H55.125V19.7891Z" stroke="white" stroke-miterlimit="10"/>
</g>
<defs>
<clipPath id="clip0_939_22179">
<rect width="63" height="32" fill="white"/>
</clipPath>
</defs>
</svg>
