<svg width="13" height="28" viewBox="0 0 13 28" fill="none" xmlns="http://www.w3.org/2000/svg">
<path d="M1.8222 0C2.24682 0.166824 2.55734 0.539834 2.86209 0.937212C5.75644 4.70668 8.65368 8.47053 11.5524 12.2344C11.8759 12.6542 12.0983 13.1285 12.1055 13.7452C12.1127 14.3712 11.9048 14.8642 11.574 15.2934C10.5919 16.5662 9.61268 17.8408 8.63201 19.1154C6.64756 21.6946 4.66167 24.2738 2.67722 26.8549C2.34359 27.2898 1.96807 27.584 1.47557 27.5747C0.840087 27.5634 0.284036 27.0536 0.0702818 26.2719C0.0500618 26.197 0.0240646 26.122 -0.000488281 26.0489C-0.000488281 25.779 -0.000488281 25.5109 -0.000488281 25.241C0.0977232 24.7255 0.340363 24.3338 0.623444 23.9664C3.16828 20.6655 5.70878 17.3609 8.25072 14.0563C8.39419 13.8701 8.39419 13.6839 8.25072 13.4977C5.71167 10.1931 3.16972 6.88851 0.624888 3.58765C0.341808 3.22026 0.0991675 2.83038 0.000956005 2.31491V1.50704C0.0428403 1.37395 0.0803918 1.24087 0.125165 1.10966C0.330253 0.52109 0.705768 0.196815 1.16072 0H1.82365H1.8222Z" fill="white" fill-opacity="0.4"/>
</svg>
