<svg width="13" height="28" viewBox="0 0 13 28" fill="none" xmlns="http://www.w3.org/2000/svg">
<path d="M10.2833 0C9.85865 0.166824 9.54813 0.539834 9.24338 0.937212C6.34903 4.70668 3.45179 8.47053 0.553107 12.2344C0.229587 12.6542 0.00716782 13.1285 -5.43594e-05 13.7452C-0.00727558 14.3712 0.200702 14.8642 0.531444 15.2934C1.51356 16.5662 2.49279 17.8408 3.47346 19.1154C5.45791 21.6946 7.4438 24.2738 9.42825 26.8549C9.76188 27.2898 10.1374 27.584 10.6299 27.5747C11.2654 27.5634 11.8214 27.0536 12.0352 26.2719C12.0554 26.197 12.0814 26.122 12.106 26.0489C12.106 25.779 12.106 25.5109 12.106 25.241C12.0077 24.7255 11.7651 24.3338 11.482 23.9664C8.93719 20.6655 6.39669 17.3609 3.85475 14.0563C3.71128 13.8701 3.71128 13.6839 3.85475 13.4977C6.3938 10.1931 8.93575 6.88851 11.4806 3.58765C11.7637 3.22026 12.0063 2.83038 12.1045 2.31491V1.50704C12.0626 1.37395 12.0251 1.24087 11.9803 1.10966C11.7752 0.52109 11.3997 0.196815 10.9448 0H10.2818H10.2833Z" fill="white" fill-opacity="0.4"/>
</svg>
