<svg width="20" height="20" viewBox="0 0 20 20" fill="none" xmlns="http://www.w3.org/2000/svg">
<path d="M0 16.6654V14.3529C0 13.8806 0.118056 13.4431 0.354167 13.0404C0.590278 12.6376 0.916667 12.332 1.33333 12.1237C1.52778 12.0265 1.71528 11.9362 1.89583 11.8529C2.09028 11.7695 2.29167 11.6931 2.5 11.6237V16.6654H0ZM3.33333 10.832C2.63889 10.832 2.04861 10.589 1.5625 10.1029C1.07639 9.61676 0.833333 9.02648 0.833333 8.33203C0.833333 7.63759 1.07639 7.04731 1.5625 6.5612C2.04861 6.07509 2.63889 5.83203 3.33333 5.83203C4.02778 5.83203 4.61806 6.07509 5.10417 6.5612C5.59028 7.04731 5.83333 7.63759 5.83333 8.33203C5.83333 9.02648 5.59028 9.61676 5.10417 10.1029C4.61806 10.589 4.02778 10.832 3.33333 10.832ZM3.33333 9.16537C3.56944 9.16537 3.76389 9.08898 3.91667 8.9362C4.08333 8.76953 4.16667 8.56814 4.16667 8.33203C4.16667 8.09592 4.08333 7.90148 3.91667 7.7487C3.76389 7.58203 3.56944 7.4987 3.33333 7.4987C3.09722 7.4987 2.89583 7.58203 2.72917 7.7487C2.57639 7.90148 2.5 8.09592 2.5 8.33203C2.5 8.56814 2.57639 8.76953 2.72917 8.9362C2.89583 9.08898 3.09722 9.16537 3.33333 9.16537ZM3.33333 16.6654V14.332C3.33333 13.8598 3.45139 13.4293 3.6875 13.0404C3.9375 12.6376 4.26389 12.332 4.66667 12.1237C5.52778 11.6931 6.40278 11.3737 7.29167 11.1654C8.18056 10.9431 9.08333 10.832 10 10.832C10.9167 10.832 11.8194 10.9431 12.7083 11.1654C13.5972 11.3737 14.4722 11.6931 15.3333 12.1237C15.7361 12.332 16.0556 12.6376 16.2917 13.0404C16.5417 13.4293 16.6667 13.8598 16.6667 14.332V16.6654H3.33333ZM5 14.9987H15V14.332C15 14.1793 14.9583 14.0404 14.875 13.9154C14.8056 13.7904 14.7083 13.6931 14.5833 13.6237C13.8333 13.2487 13.0764 12.9709 12.3125 12.7904C11.5486 12.5959 10.7778 12.4987 10 12.4987C9.22222 12.4987 8.45139 12.5959 7.6875 12.7904C6.92361 12.9709 6.16667 13.2487 5.41667 13.6237C5.29167 13.6931 5.1875 13.7904 5.10417 13.9154C5.03472 14.0404 5 14.1793 5 14.332V14.9987ZM10 9.9987C9.08333 9.9987 8.29861 9.67231 7.64583 9.01953C6.99306 8.36675 6.66667 7.58203 6.66667 6.66537C6.66667 5.7487 6.99306 4.96398 7.64583 4.3112C8.29861 3.65842 9.08333 3.33203 10 3.33203C10.9167 3.33203 11.7014 3.65842 12.3542 4.3112C13.0069 4.96398 13.3333 5.7487 13.3333 6.66537C13.3333 7.58203 13.0069 8.36675 12.3542 9.01953C11.7014 9.67231 10.9167 9.9987 10 9.9987ZM10 8.33203C10.4583 8.33203 10.8472 8.17231 11.1667 7.85286C11.5 7.51953 11.6667 7.1237 11.6667 6.66537C11.6667 6.20703 11.5 5.81814 11.1667 5.4987C10.8472 5.16536 10.4583 4.9987 10 4.9987C9.54167 4.9987 9.14583 5.16536 8.8125 5.4987C8.49306 5.81814 8.33333 6.20703 8.33333 6.66537C8.33333 7.1237 8.49306 7.51953 8.8125 7.85286C9.14583 8.17231 9.54167 8.33203 10 8.33203ZM16.6667 10.832C15.9722 10.832 15.3819 10.589 14.8958 10.1029C14.4097 9.61676 14.1667 9.02648 14.1667 8.33203C14.1667 7.63759 14.4097 7.04731 14.8958 6.5612C15.3819 6.07509 15.9722 5.83203 16.6667 5.83203C17.3611 5.83203 17.9514 6.07509 18.4375 6.5612C18.9236 7.04731 19.1667 7.63759 19.1667 8.33203C19.1667 9.02648 18.9236 9.61676 18.4375 10.1029C17.9514 10.589 17.3611 10.832 16.6667 10.832ZM16.6667 9.16537C16.9028 9.16537 17.0972 9.08898 17.25 8.9362C17.4167 8.76953 17.5 8.56814 17.5 8.33203C17.5 8.09592 17.4167 7.90148 17.25 7.7487C17.0972 7.58203 16.9028 7.4987 16.6667 7.4987C16.4306 7.4987 16.2292 7.58203 16.0625 7.7487C15.9097 7.90148 15.8333 8.09592 15.8333 8.33203C15.8333 8.56814 15.9097 8.76953 16.0625 8.9362C16.2292 9.08898 16.4306 9.16537 16.6667 9.16537ZM17.5 16.6654V11.6237C17.7083 11.6931 17.9028 11.7695 18.0833 11.8529C18.2778 11.9362 18.4722 12.0265 18.6667 12.1237C19.0833 12.332 19.4097 12.6376 19.6458 13.0404C19.8819 13.4431 20 13.8806 20 14.3529V16.6654H17.5Z" fill="#020202"/>
</svg>
