<svg width="20" height="20" viewBox="0 0 20 20" fill="none" xmlns="http://www.w3.org/2000/svg">
<path d="M17.7083 13.0846V4.99089C17.7083 3.49827 16.503 2.29297 15.0104 2.29297H4.98954C3.49693 2.29297 2.29163 3.49827 2.29163 4.99089V15.0117C2.29163 16.5043 3.49693 17.7096 4.98954 17.7096H13.0833L17.7083 13.0846ZM4.98954 16.168C4.35185 16.168 3.83329 15.6494 3.83329 15.0117V4.99089C3.83329 4.3532 4.35185 3.83464 4.98954 3.83464H15.0104C15.6481 3.83464 16.1666 4.3532 16.1666 4.99089V12.3138H15.0104C13.5178 12.3138 12.3125 13.5191 12.3125 15.0117V16.168H4.98954ZM8.2761 8.29145C8.07288 7.57668 7.33007 7.15623 6.6153 7.35945C5.90053 7.56267 5.48007 8.30547 5.68329 9.02725C5.73935 9.22346 5.83746 9.39865 5.9636 9.54581L8.30413 8.8871C8.33916 8.69089 8.33216 8.48767 8.2761 8.29145ZM13.0973 6.93198C12.9011 6.21721 12.1513 5.79676 11.4365 5.99998C10.7217 6.2032 10.3013 6.946 10.5045 7.66778C10.5606 7.86399 10.6587 8.03918 10.7848 8.18634L13.1253 7.52763C13.1604 7.33142 13.1534 7.1282 13.0973 6.93198ZM13.7841 9.34259L6.35602 11.4379C7.3581 12.7623 9.09598 13.407 10.7848 12.9305C12.4736 12.454 13.6159 10.9894 13.7841 9.34259Z" fill="#020202"/>
</svg>
