<svg width="20" height="20" viewBox="0 0 20 20" fill="none" xmlns="http://www.w3.org/2000/svg">
<path d="M10.1833 1.66797H9.81667C9.37464 1.66797 8.95072 1.84356 8.63816 2.15612C8.3256 2.46868 8.15 2.89261 8.15 3.33464V3.48464C8.1497 3.77691 8.07255 4.06396 7.92628 4.317C7.78002 4.57004 7.56978 4.78017 7.31667 4.9263L6.95834 5.13464C6.70497 5.28092 6.41756 5.35793 6.125 5.35793C5.83244 5.35793 5.54503 5.28092 5.29167 5.13464L5.16667 5.06797C4.78422 4.84735 4.32987 4.78751 3.90334 4.90156C3.47681 5.01561 3.11296 5.29425 2.89167 5.6763L2.70833 5.99297C2.48772 6.37541 2.42787 6.82977 2.54192 7.2563C2.65598 7.68283 2.93461 8.04668 3.31667 8.26797L3.44167 8.3513C3.69356 8.49673 3.90302 8.70554 4.04921 8.95699C4.1954 9.20845 4.27325 9.49378 4.275 9.78464V10.2096C4.27617 10.5033 4.19971 10.7921 4.05337 11.0467C3.90703 11.3014 3.69601 11.5128 3.44167 11.6596L3.31667 11.7346C2.93461 11.9559 2.65598 12.3198 2.54192 12.7463C2.42787 13.1728 2.48772 13.6272 2.70833 14.0096L2.89167 14.3263C3.11296 14.7084 3.47681 14.987 3.90334 15.101C4.32987 15.2151 4.78422 15.1552 5.16667 14.9346L5.29167 14.868C5.54503 14.7217 5.83244 14.6447 6.125 14.6447C6.41756 14.6447 6.70497 14.7217 6.95834 14.868L7.31667 15.0763C7.56978 15.2224 7.78002 15.4326 7.92628 15.6856C8.07255 15.9386 8.1497 16.2257 8.15 16.518V16.668C8.15 17.11 8.3256 17.5339 8.63816 17.8465C8.95072 18.159 9.37464 18.3346 9.81667 18.3346H10.1833C10.6254 18.3346 11.0493 18.159 11.3618 17.8465C11.6744 17.5339 11.85 17.11 11.85 16.668V16.518C11.8503 16.2257 11.9275 15.9386 12.0737 15.6856C12.22 15.4326 12.4302 15.2224 12.6833 15.0763L13.0417 14.868C13.295 14.7217 13.5824 14.6447 13.875 14.6447C14.1676 14.6447 14.455 14.7217 14.7083 14.868L14.8333 14.9346C15.2158 15.1552 15.6701 15.2151 16.0967 15.101C16.5232 14.987 16.887 14.7084 17.1083 14.3263L17.2917 14.0013C17.5123 13.6189 17.5721 13.1645 17.4581 12.738C17.344 12.3114 17.0654 11.9476 16.6833 11.7263L16.5583 11.6596C16.304 11.5128 16.093 11.3014 15.9466 11.0467C15.8003 10.7921 15.7238 10.5033 15.725 10.2096V9.79297C15.7238 9.49929 15.8003 9.21051 15.9466 8.95588C16.093 8.70125 16.304 8.48981 16.5583 8.34297L16.6833 8.26797C17.0654 8.04668 17.344 7.68283 17.4581 7.2563C17.5721 6.82977 17.5123 6.37541 17.2917 5.99297L17.1083 5.6763C16.887 5.29425 16.5232 5.01561 16.0967 4.90156C15.6701 4.78751 15.2158 4.84735 14.8333 5.06797L14.7083 5.13464C14.455 5.28092 14.1676 5.35793 13.875 5.35793C13.5824 5.35793 13.295 5.28092 13.0417 5.13464L12.6833 4.9263C12.4302 4.78017 12.22 4.57004 12.0737 4.317C11.9275 4.06396 11.8503 3.77691 11.85 3.48464V3.33464C11.85 2.89261 11.6744 2.46868 11.3618 2.15612C11.0493 1.84356 10.6254 1.66797 10.1833 1.66797Z" stroke="#161616" stroke-width="1.67" stroke-linecap="round" stroke-linejoin="round"/>
<path d="M10 12.5C11.3807 12.5 12.5 11.3807 12.5 10C12.5 8.61929 11.3807 7.5 10 7.5C8.61929 7.5 7.5 8.61929 7.5 10C7.5 11.3807 8.61929 12.5 10 12.5Z" stroke="#161616" stroke-width="1.67" stroke-linecap="round" stroke-linejoin="round"/>
</svg>
