<svg width="15" height="16" viewBox="0 0 15 16" fill="none" xmlns="http://www.w3.org/2000/svg">
<g clip-path="url(#clip0_844_18784)">
<path d="M0.240549 14.8794C0.267794 14.5081 0.358835 14.0864 0.449212 13.7236C1.04197 11.344 2.94885 9.32511 5.34548 8.67551L4.77166 8.30878C1.60085 6.07383 2.58103 1.15266 6.33995 0.256377C11.0874 -0.875406 14.104 5.17754 10.2673 8.18215L9.52306 8.67551C11.8948 9.3636 13.8169 11.3877 14.4193 13.7565C14.5526 14.2798 14.6788 15.0192 14.6293 15.5537C14.612 15.7405 14.5323 15.7862 14.3957 15.8968H14.0641C14.0143 15.8441 13.9409 15.8083 13.8983 15.7491C13.7903 15.5991 13.8239 15.0843 13.7987 14.863C13.3199 10.6292 8.91734 8.01539 4.9255 9.68724C2.78072 10.5855 1.33271 12.5751 1.06955 14.863C1.04397 15.0847 1.07819 15.5988 0.969872 15.7491C0.927342 15.8083 0.853579 15.8441 0.804071 15.8968H0.240549C0.258159 15.5642 0.216625 15.2087 0.240549 14.8791V14.8794ZM7.09586 0.906634C4.15431 1.14707 2.65512 4.58353 4.47062 6.90005C6.02231 8.8801 9.05988 8.79326 10.5109 6.74974C12.3513 4.15825 10.268 0.647452 7.09586 0.906634Z" fill="#124A9D"/>
</g>
<defs>
<clipPath id="clip0_844_18784">
<rect width="14.4074" height="15.7795" fill="white" transform="translate(0.23291 0.117188)"/>
</clipPath>
</defs>
</svg>
